<?xml version="1.0" encoding="UTF-8" standalone="no"?>
<svg xmlns="http://www.w3.org/2000/svg" width="24px" height="28px" viewBox="0 0 516 682" version="1.1">
    <path d="" stroke="none" fill="#e86424" fill-rule="evenodd"/>
    <path d="M 166.099 43.876 L 72.699 87.573 59.186 111.036 C 48.533 129.535, 43.697 139.248, 36.337 156.936 C 31.201 169.276, 27 180.229, 27 181.275 C 27 183.162, 124.941 308.766, 127.609 310.300 C 128.434 310.774, 159.604 304.338, 204.250 294.473 C 245.638 285.329, 280.175 277.804, 281 277.751 C 281.825 277.698, 290.154 280.433, 299.509 283.827 L 316.518 290 357.525 290 L 398.531 290 444.265 234.058 C 469.419 203.290, 490 177.496, 490 176.738 C 490 175.685, 458.650 88.970, 449.355 64.314 C 448.487 62.012, 447.214 59.912, 446.525 59.648 C 445.836 59.384, 422.194 55.015, 393.986 49.939 L 342.699 40.711 302.691 20.355 C 280.687 9.160, 261.967 0.040, 261.092 0.090 C 260.216 0.139, 217.470 19.843, 166.099 43.876 M 170 52.487 L 79.500 94.759 66.925 116.686 L 54.349 138.612 98.251 188.056 C 122.397 215.250, 143.504 239.019, 145.156 240.876 L 148.160 244.252 209.330 221.057 C 242.974 208.300, 271.034 197.331, 271.686 196.681 C 272.338 196.031, 285.088 173, 300.019 145.500 C 314.950 118, 328.679 92.772, 330.527 89.438 L 333.887 83.377 297.194 46.796 L 260.500 10.214 170 52.487 M 315.250 51.265 C 337.271 73.023, 343.995 80.236, 343.980 82.086 C 343.970 83.414, 330.042 110.117, 313.030 141.426 C 296.019 172.736, 282.338 198.738, 282.629 199.209 C 282.920 199.680, 288.956 202.970, 296.042 206.521 L 308.925 212.977 328.212 189.037 C 338.821 175.869, 348.204 164.846, 349.065 164.539 C 349.926 164.233, 367.251 167.135, 387.565 170.988 C 407.879 174.842, 426.300 177.975, 428.500 177.950 C 436.308 177.865, 478.497 172.344, 478.332 171.429 C 478.079 170.032, 440.944 68.611, 440.536 68.202 C 440.341 68.008, 417.304 63.693, 389.341 58.615 L 338.500 49.380 312.500 36.119 L 286.500 22.859 315.250 51.265 M 49.217 150.623 C 48.672 151.655, 45.678 158.736, 42.563 166.357 C 37.664 178.342, 37.075 180.467, 38.199 182.079 C 41.253 186.457, 127.518 295.815, 127.741 295.592 C 128.228 295.106, 141 252.669, 141 251.540 C 141 250.559, 61.269 159.992, 53.037 151.623 C 50.378 148.919, 50.147 148.859, 49.217 150.623 M 333.500 197.583 C 314.613 220.986, 314.424 221.269, 301.695 245.208 C 294.652 258.453, 289.252 269.605, 289.695 269.991 C 290.138 270.377, 297.027 273.012, 305.004 275.846 L 319.508 281 356.603 281 L 393.697 281 433.099 232.866 C 454.769 206.392, 472.808 184.210, 473.185 183.571 C 473.658 182.769, 466.591 183.275, 450.321 185.208 L 426.771 188.006 389.945 181.003 C 369.690 177.151, 352.979 174.009, 352.809 174.020 C 352.639 174.032, 343.950 184.635, 333.500 197.583 M 212.555 229.909 L 150.610 253.500 143.828 275.500 C 140.098 287.600, 137.149 297.970, 137.273 298.544 C 137.533 299.742, 277.404 269.071, 278.847 267.500 C 279.352 266.950, 285.180 256.246, 291.799 243.714 L 303.832 220.929 289.166 213.623 L 274.500 206.318 212.555 229.909 M 444.061 262.095 L 435 272.190 435 281.110 L 435 290.031 440.080 297.015 C 442.874 300.857, 445.604 304, 446.147 304 C 449.046 304, 473.601 299.796, 474.178 299.201 C 477.474 295.801, 484.901 284.230, 484.559 283.026 C 484.321 282.187, 482.927 275.425, 481.462 268 C 479.997 260.575, 478.338 253.938, 477.776 253.250 C 477.064 252.378, 473.180 252, 464.938 252 L 453.122 252 444.061 262.095 M 449.203 267.250 C 442.693 274.708, 442.002 275.908, 442.001 279.750 C 442 282.087, 442.337 284, 442.750 284.001 C 443.163 284.001, 447.163 283.274, 451.640 282.386 L 459.781 280.770 464.832 269.885 L 469.882 259 463.143 259 L 456.404 259 449.203 267.250 M 470.164 275.794 C 468.424 279.570, 467.016 283.074, 467.036 283.580 C 467.056 284.086, 468.122 285.784, 469.406 287.354 L 471.740 290.207 474.434 286.675 C 477.068 283.222, 477.102 283.001, 475.929 276.821 C 475.270 273.345, 474.415 270.146, 474.029 269.714 C 473.644 269.282, 471.905 272.018, 470.164 275.794 M 457.500 288.516 C 456.950 288.712, 453.922 289.382, 450.771 290.003 L 445.041 291.133 446.704 293.671 C 448.447 296.332, 450.158 296.409, 461.740 294.356 L 464.980 293.781 462.922 290.891 C 460.982 288.166, 459.856 287.673, 457.500 288.516 M 278.500 299.036 C 273 301.715, 268.073 304.570, 267.550 305.382 C 266.920 306.360, 267.211 309.445, 268.413 314.544 C 271.819 328.992, 271.454 328.344, 278.996 333.359 L 285.976 338 295.041 338 L 304.107 338 310.989 332.509 C 314.774 329.489, 318.146 326.573, 318.482 326.029 C 319.423 324.507, 316.875 304.140, 315.614 303.100 C 313.840 301.636, 292.444 293.991, 290.375 294.082 C 289.344 294.128, 284 296.357, 278.500 299.036 M 371.785 299.901 C 356.542 300.796, 343.652 301.973, 343.140 302.515 C 342.628 303.057, 340.137 309.254, 337.605 316.287 C 333.004 329.065, 333 329.085, 333.015 342.287 C 333.024 349.554, 333.361 356.012, 333.765 356.638 C 335.412 359.188, 389.467 402, 391.040 402 C 391.976 402, 400.410 395.245, 409.784 386.988 C 424.493 374.031, 427.763 371.623, 433.663 369.403 C 437.423 367.987, 441.063 366.363, 441.750 365.792 C 442.643 365.051, 443 360.679, 443 350.475 L 443 336.196 424.937 317.098 C 407.580 298.747, 406.729 298.005, 403.187 298.136 C 401.159 298.211, 387.028 299.005, 371.785 299.901 M 283.079 305.039 L 276.659 308.077 281.038 312.538 C 285.413 316.996, 285.422 317, 292.458 316.957 L 299.500 316.915 303.225 312.082 L 306.949 307.249 299.725 304.620 C 295.751 303.174, 291.825 301.993, 291 301.996 C 290.175 301.999, 286.611 303.368, 283.079 305.039 M 369.322 309.410 C 358.774 310.022, 349.956 310.742, 349.725 311.011 C 349.495 311.280, 348.042 315.014, 346.498 319.309 C 344.098 325.982, 343.894 327.308, 345.095 328.425 C 345.868 329.144, 355.808 335.665, 367.184 342.915 L 387.868 356.097 400.987 345.049 L 414.105 334 420.553 334 C 424.099 334, 427 333.740, 427 333.423 C 427 333.106, 421.712 327.256, 415.250 320.424 L 403.500 308.001 396 308.149 C 391.875 308.231, 379.870 308.798, 369.322 309.410 M 307.440 318.490 C 305.483 321.056, 304.947 322.651, 305.415 324.517 C 306.042 327.014, 306.091 327.026, 308.494 325.277 C 310.411 323.883, 310.944 322.584, 310.969 319.250 C 310.986 316.913, 310.798 315, 310.551 315 C 310.304 315, 308.904 316.570, 307.440 318.490 M 277.346 320.332 C 277.706 321.339, 278 322.565, 278 323.055 C 278 323.546, 280.356 325.534, 283.237 327.473 C 287.616 330.423, 289.354 331, 293.853 331 C 298.945 331, 299.201 330.879, 298.630 328.750 C 298.299 327.512, 298.021 325.938, 298.014 325.250 C 298.004 324.359, 295.787 324, 290.305 324 C 283.294 324, 282.346 323.755, 279.650 321.250 C 277.461 319.215, 276.862 318.976, 277.346 320.332 M 342 344.851 L 342 351.750 363.218 368.824 C 374.888 378.214, 384.618 385.715, 384.840 385.493 C 385.063 385.270, 384.917 380.456, 384.516 374.794 L 383.787 364.500 368.804 355 C 360.564 349.775, 351.162 343.802, 347.911 341.726 L 342 337.951 342 344.851 M 405.284 353.615 L 393.069 364.082 393.653 372.291 C 393.974 376.806, 394.521 381.945, 394.868 383.710 L 395.500 386.920 408.500 375.504 C 418.102 367.072, 423.068 363.452, 427.500 361.652 L 433.500 359.216 433.790 351.108 L 434.081 343 425.790 343.074 L 417.500 343.147 405.284 353.615 M 400.750 414.545 L 394 421.045 394 429.152 L 394 437.259 399.139 443.998 L 404.279 450.737 414.838 451.805 C 420.645 452.392, 425.812 452.616, 426.318 452.303 C 426.825 451.990, 429.215 447.478, 431.630 442.275 L 436.020 432.817 432.919 427 C 430.310 422.104, 428.349 420.142, 420.520 414.592 C 415.406 410.966, 410.384 408.010, 409.360 408.022 C 408.337 408.034, 404.462 410.969, 400.750 414.545 M 405.208 420.288 C 401.645 423.918, 401 425.204, 401 428.677 C 401 433.218, 400.720 433.075, 412.532 434.565 L 417.565 435.200 419.952 430.103 C 421.265 427.299, 422.150 424.851, 421.920 424.661 C 420.195 423.245, 410.016 416, 409.751 416 C 409.567 416, 407.523 417.930, 405.208 420.288 M 424.606 437.550 L 422.006 443.228 417.253 442.564 C 414.639 442.198, 410.925 441.644, 409 441.333 C 405.856 440.825, 405.653 440.925, 407 442.315 C 407.922 443.266, 411.198 444.103, 415.500 444.487 L 422.500 445.111 425.265 438.904 C 426.786 435.490, 427.845 432.511, 427.618 432.284 C 427.391 432.058, 426.035 434.427, 424.606 437.550 M 196 478.495 C 156.372 487.373, 136.537 531.234, 155.112 568.914 C 165.779 590.554, 188.403 603.083, 214.412 601.756 C 248.527 600.015, 272.965 574.031, 272.965 539.500 C 272.965 511.615, 257.178 489.120, 231.500 480.414 C 221.600 477.057, 206.145 476.222, 196 478.495 M 45 479.532 C 30.127 483.647, 16.575 493.338, 9.604 504.843 C -2.796 525.306, -2.574 555.424, 10.121 575.066 C 20.646 591.351, 36.817 600.256, 58.363 601.633 C 81.687 603.124, 103.245 592.529, 115.603 573.500 L 119.500 567.500 119.812 549.250 L 120.124 531 88.562 531 L 57 531 57 543.476 L 57 555.952 73.633 556.226 L 90.266 556.500 86.874 560.945 C 82.263 566.988, 75.484 570.351, 66.941 570.833 C 56.913 571.400, 49.945 569.040, 43.952 563.048 C 37.537 556.632, 35.605 550.289, 36.204 537.606 C 36.847 523.974, 41.152 516.549, 51 512.084 C 60.421 507.813, 75.883 510.595, 80.315 517.357 L 82.046 520 100.523 520 C 115.323 520, 119 519.733, 119 518.657 C 119 515.588, 114.860 505.629, 111.449 500.489 C 105.267 491.176, 95.846 484.463, 83.160 480.333 C 76.231 478.077, 52.087 477.570, 45 479.532 M 305 540 L 305 601 341 601 L 377 601 377 587.500 L 377 574 358.500 574 L 340 574 340 526.500 L 340 479 322.500 479 L 305 479 305 540 M 404 540.075 L 404 601.151 435.250 600.755 C 469.523 600.320, 472.170 599.947, 484.965 593.747 C 489.388 591.604, 493.955 588.143, 499.095 583.040 C 511.127 571.096, 515.957 558.634, 515.985 539.460 C 516.021 514.997, 504.909 495.939, 484.883 486.117 C 471.920 479.760, 466.374 479, 432.935 479 L 404 479 404 540.075 M 200.086 510.657 C 193.903 512.925, 187.682 519.469, 185.414 526.090 C 182.749 533.872, 182.924 546.919, 185.779 553.294 C 189.047 560.589, 191.389 563.349, 196.819 566.305 C 206.685 571.675, 220.131 570.638, 228.337 563.874 C 230.282 562.271, 233.139 558.381, 234.686 555.230 C 237.208 550.095, 237.498 548.462, 237.481 539.500 C 237.465 531.527, 237.041 528.588, 235.389 525 C 232.546 518.827, 228.524 514.311, 223.624 511.790 C 218.129 508.963, 206.263 508.392, 200.086 510.657 M 439 539.369 L 439 570 447.818 570 C 469.100 570, 479.693 561.022, 480.791 542.054 C 481.381 531.857, 479.338 524.801, 474.057 518.802 C 468.281 512.241, 461.969 509.800, 449.250 509.212 L 439 508.738 439 539.369 M 184 652 L 184 682 188.500 682 L 193 682 193 652 L 193 622 188.500 622 L 184 622 184 652 M 303.667 622.667 C 303.300 623.033, 303 636.533, 303 652.667 L 303 682 307.500 682 L 312 682 312 659.262 L 312 636.524 326.953 659.262 L 341.905 682 346.467 682 L 351.030 682 350.765 652.250 L 350.500 622.500 346.269 622.193 L 342.038 621.887 341.769 644.625 L 341.500 667.364 326.651 644.682 L 311.802 622 308.068 622 C 306.014 622, 304.033 622.300, 303.667 622.667 M 461 651.961 L 461 682.201 473.750 681.850 C 485.503 681.527, 486.863 681.287, 491.142 678.771 C 503.276 671.638, 507.759 651.247, 500.468 636.346 C 495.649 626.495, 488.597 622.967, 472.250 622.229 L 461 621.721 461 651.961 M 13 652.445 L 13 682 17.479 682 L 21.958 682 22.229 662.277 L 22.500 642.554 31.121 662.027 C 39.733 681.481, 39.745 681.500, 43.121 681.787 L 46.500 682.074 55.720 661.287 L 64.940 640.500 64.970 661.250 L 65 682 69 682 L 73 682 73 652.500 L 73 623 68.672 623 L 64.344 623 53.922 646.398 C 48.190 659.266, 43.314 669.618, 43.087 669.401 C 42.860 669.185, 38.092 658.768, 32.493 646.254 L 22.311 623.500 17.656 623.195 L 13 622.890 13 652.445 M 469 652.500 L 469 675 475.250 674.978 C 489.104 674.929, 496.008 667.482, 495.994 652.601 C 495.987 644.774, 494.594 639.859, 491.258 635.895 C 487.664 631.623, 483.333 630, 475.532 630 L 469 630 469 652.500" stroke="none" fill="#e46424" fill-rule="evenodd"/>
</svg>
