<?xml version="1.0" standalone="no"?>
<svg version="1.0" xmlns="http://www.w3.org/2000/svg" width="24px" height="24px" viewBox="0 0 400.000000 400.000000" preserveAspectRatio="xMidYMid meet">
    <g transform="translate(0.000000,400.000000) scale(0.100000,-0.100000)" fill="#000000" stroke="none">
        <path d="M1220 3036 c-405 -234 -478 -279 -493 -307 -16 -32 -17 -82 -15 -740 3 -607 5 -708 18 -728 8 -12 229 -146 490 -297 519 -299 517 -298 571 -245 l29 29 0 184 c0 136 -3 189 -13 202 -7 10 -148 96 -313 191 -210 122 -304 182 -316 202 -16 25 -18 67 -18 473 0 406 2 448 18 473 12 20 106 80 316 202 165 95 306 181 313 191 10 13 13 66 13 202 l0 184 -29 29 c-54 53 -52 54 -571 -245z"/>
        <path d="M2209 3281 l-29 -29 0 -184 c0 -136 3 -189 13 -202 7 -10 148 -96 313 -191 210 -122 304 -182 316 -202 16 -25 18 -67 18 -473 0 -406 -2 -448 -18 -473 -12 -20 -106 -80 -316 -202 -165 -95 -306 -181 -313 -191 -10 -13 -13 -66 -13 -202 l0 -184 29 -29 c54 -53 52 -54 571 245 405 234 478 279 493 307 16 32 17 82 15 740 -3 607 -5 708 -18 728 -8 12 -229 146 -490 297 -519 299 -517 298 -571 245z"/>
        <path d="M1951 2495 c-53 -24 -334 -186 -360 -209 -45 -40 -51 -71 -51 -286 0 -215 6 -246 51 -286 31 -27 334 -200 377 -215 24 -8 40 -8 65 0 42 15 345 188 376 215 45 40 51 71 51 286 0 215 -6 246 -51 286 -28 24 -311 187 -363 209 -43 18 -52 18 -95 0z"/>
    </g>
</svg>
