<?xml version="1.0" encoding="UTF-8" standalone="no"?>
<svg xmlns="http://www.w3.org/2000/svg" width="160" height="56" viewBox="0 0 160 65.036" version="1.1">
    <path d="" stroke="none" fill="#e86424" fill-rule="evenodd" stroke-width="0.14388489208633093"></path>
    <path d="M20.144 6.229C12.824 9.65 6.762 12.495 6.674 12.552c-0.088 0.057 -1.074 1.707 -2.19 3.668 -1.582 2.779 -2.302 4.227 -3.264 6.572C0.541 24.446 0.005 25.941 0.028 26.113c0.045 0.323 14.151 18.415 14.461 18.547 0.095 0.04 5.11 -1.019 11.145 -2.354l10.972 -2.427 2.573 0.924 2.573 0.924h11.575l0.373 -0.396C54.655 40.317 66.619 25.565 66.619 25.402c0 -0.247 -6.008 -16.648 -6.149 -16.786 -0.06 -0.059 -3.444 -0.702 -7.52 -1.429l-7.41 -1.322 -5.784 -2.933c-3.181 -1.613 -5.9 -2.931 -6.043 -2.928 -0.143 0.002 -6.249 2.803 -13.569 6.224m0.432 1.295L7.554 13.604l-1.822 3.162L3.91 19.928l0.471 0.504c0.259 0.277 3.302 3.697 6.763 7.6 4.847 5.468 6.346 7.075 6.531 7 0.132 -0.053 4.092 -1.557 8.8 -3.341 4.709 -1.784 8.634 -3.316 8.724 -3.403 0.09 -0.087 2.136 -3.795 4.547 -8.239l4.384 -8.08L38.863 6.707l-5.266 -5.263L20.576 7.524m20.906 -0.157c3.078 3.025 4.142 4.156 4.137 4.4 -0.004 0.18 -2.017 4.026 -4.475 8.546 -2.457 4.52 -4.416 8.264 -4.353 8.319 0.064 0.055 0.936 0.528 1.939 1.051l1.824 0.95 2.834 -3.518C45.168 24.906 46.318 23.597 46.478 23.597c0.141 0 2.674 0.46 5.63 1.023l5.374 1.023 3.525 -0.398c1.939 -0.219 3.625 -0.436 3.747 -0.483 0.182 -0.071 -0.265 -1.413 -2.518 -7.559L59.496 9.73 52.23 8.417l-7.266 -1.313 -3.813 -1.905 -3.813 -1.905 4.143 4.072m65.329 0.408c-3.782 0.679 -6.847 3.329 -8.067 6.974 -0.351 1.048 -0.385 1.351 -0.388 3.381 -0.003 2.077 0.024 2.309 0.399 3.381 1.189 3.399 3.656 5.754 6.997 6.68 5.791 1.605 11.641 -1.647 13.109 -7.286 0.637 -2.445 0.307 -5.517 -0.837 -7.811 -0.806 -1.615 -2.716 -3.499 -4.356 -4.295 -0.673 -0.327 -1.612 -0.697 -2.086 -0.823 -1.033 -0.274 -3.735 -0.388 -4.772 -0.201m-25.118 0.135c-3.083 0.562 -5.732 2.473 -6.993 5.046 -0.911 1.859 -1.099 2.743 -1.099 5.175 0 2.432 0.188 3.316 1.099 5.175 1.18 2.408 3.559 4.233 6.399 4.912 1.844 0.44 4.659 0.343 6.311 -0.218 2.36 -0.802 4.626 -2.701 5.732 -4.807l0.527 -1.002V16.691h-10.791v4.173h2.806c1.543 0 2.806 0.037 2.806 0.082 0 0.045 -0.189 0.357 -0.42 0.693 -0.555 0.806 -1.401 1.347 -2.551 1.631 -0.789 0.195 -1.109 0.205 -2.007 0.066C80.769 22.908 79.424 21.224 79.424 18.212c0 -2.649 1.068 -4.32 3.148 -4.925 1.538 -0.447 3.515 0.036 4.287 1.048l0.369 0.484h6.176l-0.101 -0.468c-0.643 -2.98 -2.995 -5.347 -6.181 -6.22 -1 -0.274 -4.389 -0.414 -5.43 -0.224M124.604 18.129v10.216h12.086v-4.46h-6.331V7.914h-5.755v10.216m16.547 -0.004v10.239l5.36 -0.046 5.36 -0.046 1.302 -0.455c1.73 -0.604 2.89 -1.305 3.983 -2.406 2.031 -2.046 2.998 -4.815 2.793 -8.002 -0.181 -2.82 -0.968 -4.627 -2.821 -6.48 -1.384 -1.384 -2.581 -2.07 -4.546 -2.607 -1.047 -0.286 -1.572 -0.317 -6.287 -0.375L141.151 7.886v10.239M107.554 13.074c-1.388 0.365 -2.46 1.296 -2.977 2.584 -0.274 0.682 -0.328 1.088 -0.33 2.471 -0.002 1.483 0.036 1.737 0.37 2.446 0.816 1.733 1.89 2.453 3.819 2.56 1.598 0.088 2.446 -0.202 3.439 -1.176 1.256 -1.233 1.741 -3.18 1.306 -5.248 -0.362 -1.722 -1.129 -2.751 -2.51 -3.364 -0.683 -0.304 -2.421 -0.455 -3.118 -0.272M147.05 18.129v5.22l1.619 -0.076c1.942 -0.091 3.021 -0.445 3.942 -1.295 0.94 -0.866 1.367 -1.866 1.455 -3.404 0.105 -1.848 -0.281 -3.064 -1.304 -4.107 -1.026 -1.045 -1.958 -1.383 -4.093 -1.483l-1.619 -0.076V18.129M3.092 21.819c-1.25 2.967 -1.663 4.112 -1.542 4.267 0.074 0.095 3.003 3.831 6.508 8.302 3.505 4.471 6.385 8.146 6.4 8.166 0.015 0.02 0.469 -1.418 1.008 -3.195 0.865 -2.848 0.957 -3.262 0.779 -3.486 -0.111 -0.14 -3.045 -3.461 -6.52 -7.38 -3.475 -3.919 -6.336 -7.149 -6.359 -7.177 -0.022 -0.028 -0.146 0.198 -0.275 0.504m40.97 6.62c-2.741 3.395 -2.752 3.412 -4.569 6.846 -1.002 1.894 -1.791 3.473 -1.755 3.509 0.037 0.037 1.05 0.42 2.251 0.852l2.185 0.786 5.279 -0.002 5.279 -0.002 5.786 -7.078c3.182 -3.893 5.772 -7.091 5.755 -7.106 -0.017 -0.016 -1.549 0.152 -3.405 0.374l-3.374 0.403 -5.187 -0.989c-2.853 -0.544 -5.257 -0.99 -5.343 -0.992 -0.086 -0.001 -1.393 1.529 -2.904 3.401m-17.378 4.605 -8.927 3.392 -0.318 1.099c-0.175 0.604 -0.633 2.113 -1.018 3.353 -0.384 1.24 -0.627 2.229 -0.539 2.198 0.088 -0.031 4.596 -1.032 10.017 -2.225s9.964 -2.201 10.096 -2.24c0.211 -0.062 3.719 -6.46 3.715 -6.775 -0.001 -0.101 -3.892 -2.215 -4.045 -2.198 -0.03 0.003 -4.072 1.532 -8.982 3.398M75.971 37.619V43.165h1.583l0.003 -3.849 0.003 -3.849 1.709 3.813 1.709 3.813h1.242l1.66 -3.733 1.66 -3.733 0.038 3.769 0.038 3.769H87.194v-11.094l-0.81 0.043 -0.81 0.043 -1.949 4.353c-1.072 2.394 -1.987 4.353 -2.035 4.353 -0.047 0 -0.96 -1.959 -2.029 -4.353l-1.944 -4.353 -0.823 -0.043 -0.823 -0.043v5.547m21.151 0.007V43.165h1.583v-11.079h-1.583v5.54m11.511 0V43.165h1.583l0.003 -4.209 0.003 -4.209 2.767 4.202 2.767 4.202 0.827 0.007L117.41 43.165v-11.079h-1.583l-0.002 4.281 -0.002 4.281 -2.819 -4.281L110.184 32.086H108.633v5.54m18.561 0.013v5.553l2.77 -0.049c2.765 -0.049 2.771 -0.05 3.705 -0.501 2.168 -1.047 3.148 -2.84 2.985 -5.463 -0.094 -1.509 -0.603 -2.685 -1.542 -3.564 -1.365 -1.277 -2.259 -1.524 -5.508 -1.527L127.194 32.086v5.553m1.583 -0.028V41.871h1.413c2.958 0 4.387 -0.983 4.795 -3.3 0.355 -2.018 -0.375 -3.823 -1.892 -4.673 -0.743 -0.417 -0.898 -0.447 -2.554 -0.495l-1.763 -0.051v4.259m-68.813 0.08 -1.259 1.426v2.553l0.65 0.923c0.358 0.508 0.73 0.966 0.827 1.019 0.098 0.053 1.052 -0.03 2.12 -0.184 2.155 -0.311 1.933 -0.18 3.039 -1.79l0.521 -0.759 -0.428 -2.13c-0.235 -1.172 -0.494 -2.211 -0.575 -2.31 -0.103 -0.126 -0.667 -0.179 -1.892 -0.177l-1.745 0.003 -1.259 1.426m0.775 0.733c-0.954 1.076 -1.027 1.205 -1.027 1.814 0 0.608 0.024 0.65 0.324 0.577 0.178 -0.044 0.752 -0.157 1.276 -0.253l0.952 -0.174 0.667 -1.454c0.367 -0.799 0.667 -1.502 0.666 -1.561 -0.001 -0.059 -0.413 -0.108 -0.916 -0.108h-0.915l-1.027 1.158m3.034 1.189c-0.256 0.569 -0.462 1.099 -0.459 1.178 0.003 0.079 0.159 0.331 0.345 0.559l0.34 0.415 0.378 -0.571c0.375 -0.566 0.376 -0.579 0.175 -1.538 -0.112 -0.532 -0.228 -0.993 -0.258 -1.023 -0.03 -0.03 -0.264 0.41 -0.52 0.979m-2.663 2.037c-0.458 0.1 -0.858 0.208 -0.889 0.239 -0.032 0.031 0.053 0.202 0.186 0.38 0.237 0.315 0.274 0.319 1.423 0.156l1.18 -0.167 -0.292 -0.41c-0.322 -0.452 -0.403 -0.462 -1.608 -0.199m-25.022 1.395c-0.846 0.401 -1.571 0.815 -1.61 0.919 -0.04 0.104 0.049 0.63 0.198 1.17a123.367 123.367 0 0 1 0.426 1.581c0.136 0.527 0.28 0.68 1.185 1.259 1.021 0.653 1.041 0.659 2.28 0.659h1.25l1.116 -0.88 1.116 -0.88 -0.081 -0.595c-0.045 -0.327 -0.126 -1.032 -0.181 -1.565 -0.055 -0.534 -0.177 -1.035 -0.273 -1.114 -0.284 -0.236 -3.218 -1.298 -3.566 -1.291 -0.177 0.004 -1.014 0.335 -1.86 0.737m13.408 0.072c-1.939 0.11 -3.66 0.256 -3.824 0.325 -0.218 0.092 -0.481 0.626 -0.972 1.975l-0.673 1.849 0.003 1.942c0.001 1.068 0.05 2.011 0.108 2.095 0.078 0.112 5.45 4.48 7.916 6.435 0.302 0.24 0.684 -0.028 3.165 -2.22 2.054 -1.815 2.46 -2.112 3.309 -2.411 0.532 -0.188 1.049 -0.405 1.147 -0.483 0.129 -0.101 0.18 -0.729 0.18 -2.224v-2.083l-1.395 -1.461a974.58 974.58 0 0 0 -2.609 -2.72L54.637 42.878l-0.808 0.02c-0.444 0.011 -2.394 0.11 -4.333 0.22m-12.573 0.714 -0.99 0.508 0.624 0.636c0.507 0.516 0.72 0.636 1.134 0.635 1.162 -0.004 1.567 -0.158 2.09 -0.796l0.505 -0.617 -1.163 -0.444c-0.64 -0.244 -1.174 -0.441 -1.186 -0.437 -0.013 0.004 -0.469 0.236 -1.014 0.515m14.012 0.571a1694.466 1694.466 0 0 0 -3.803 0.229l-0.709 0.045 -0.398 1.079c-0.219 0.594 -0.401 1.155 -0.406 1.246 -0.004 0.092 0.883 0.736 1.971 1.43a1036.04 1036.04 0 0 1 3.149 2.017l1.171 0.755 1.861 -1.566 1.861 -1.566 1.016 -0.043 1.016 -0.043 -1.817 -1.884 -1.817 -1.884 -3.094 0.184m-10.54 1.335c-0.647 0.772 -0.419 1.623 0.239 0.896 0.166 -0.183 0.233 -0.454 0.202 -0.821l-0.045 -0.547 -0.396 0.472m-4.375 0.354c0.052 0.145 0.094 0.314 0.094 0.375 0 0.061 0.363 0.353 0.806 0.647 0.735 0.488 0.866 0.527 1.484 0.442 0.652 -0.09 0.676 -0.109 0.616 -0.515l-0.062 -0.422h-1.091c-0.991 0 -1.13 -0.036 -1.517 -0.396 -0.315 -0.293 -0.401 -0.327 -0.332 -0.132M45.324 49.602v0.983l3.058 2.465c1.682 1.356 3.08 2.442 3.108 2.415 0.028 -0.027 0.005 -0.719 -0.051 -1.538l-0.101 -1.489 -2.81 -1.794c-1.545 -0.987 -2.898 -1.846 -3.007 -1.909 -0.158 -0.093 -0.197 0.076 -0.197 0.868m9.107 1.231L52.675 52.302l0.088 1.367c0.145 2.245 -0.015 2.222 2.158 0.307 1.471 -1.296 2.096 -1.75 2.77 -2.01l0.87 -0.335V49.353l-1.187 0.005 -1.187 0.005 -1.756 1.47m-0.601 8.677L52.806 60.459v2.428l0.683 0.929c0.376 0.511 0.818 0.966 0.982 1.012 0.164 0.046 0.934 0.095 1.71 0.11l1.411 0.027 0.62 -1.363 0.62 -1.363 -0.444 -0.833c-0.375 -0.704 -0.661 -0.987 -1.853 -1.838 -0.775 -0.553 -1.47 -1.006 -1.545 -1.006 -0.075 0 -0.597 0.427 -1.16 0.949m0.588 0.963c-0.512 0.521 -0.605 0.708 -0.605 1.204v0.587l0.755 0.096c0.415 0.053 0.955 0.131 1.199 0.174 0.422 0.075 0.459 0.041 0.758 -0.678 0.173 -0.416 0.265 -0.799 0.204 -0.85 -0.264 -0.222 -1.594 -1.15 -1.647 -1.15 -0.032 0 -0.331 0.278 -0.664 0.617m2.825 2.395c-0.162 0.39 -0.382 0.743 -0.489 0.784 -0.107 0.041 -0.594 0.01 -1.082 -0.068 -0.488 -0.079 -0.924 -0.107 -0.968 -0.063 -0.181 0.181 0.242 0.331 1.159 0.411 0.946 0.083 0.975 0.075 1.171 -0.305 0.329 -0.64 0.655 -1.469 0.577 -1.469 -0.04 0 -0.205 0.319 -0.368 0.71" stroke="none" fill="#e46424" fill-rule="evenodd" stroke-width="0.14388489208633093"></path>
</svg>
